<svg width="70" height="70" xmlns="http://www.w3.org/2000/svg" xmlns:xlink="http://www.w3.org/1999/xlink" xml:space="preserve" overflow="hidden"><defs><clipPath id="clip0"><rect x="361" y="361" width="70" height="70"/></clipPath></defs><g clip-path="url(#clip0)" transform="translate(-361 -361)"><path d="M386.514 414.273C386.514 418.3 383.249 421.565 379.222 421.565 375.195 421.565 371.93 418.3 371.93 414.273 371.93 410.246 375.195 406.981 379.222 406.981 383.249 406.981 386.514 410.246 386.514 414.273Z"/><path d="M420.784 378.544C420.784 382.571 417.52 385.835 413.493 385.835 409.466 385.835 406.201 382.571 406.201 378.544 406.201 374.517 409.466 371.252 413.493 371.252 417.52 371.252 420.784 374.517 420.784 378.544Z"/><path d="M371.208 378.536 379.222 370.785 387.235 378.536 379.222 386.55 371.208 378.536Z"/><path d="M406.201 406.938 420.784 406.938 420.784 421.521 406.201 421.521Z"/><path d="M389.525 415.739 400.375 415.739 398.917 417.197 398.917 417.197C398.444 417.725 398.488 418.536 399.016 419.009 399.502 419.445 400.237 419.446 400.725 419.013L404.553 415.184C404.792 414.944 404.925 414.619 404.925 414.28 404.922 413.942 404.789 413.618 404.553 413.376L400.725 409.548C400.226 409.049 399.416 409.049 398.917 409.548 398.417 410.047 398.417 410.857 398.917 411.356L400.375 412.815 389.525 412.815Z"/><path d="M389.029 379.411 392.857 383.24C393.361 383.735 394.17 383.728 394.666 383.225 395.161 382.722 395.154 381.912 394.651 381.417L393.193 379.958 403.292 379.958 403.292 377.042 393.2 377.042 394.658 375.583C395.158 375.086 395.159 374.278 394.662 373.779 394.165 373.279 393.357 373.278 392.857 373.775L389.029 377.603C388.532 378.104 388.532 378.911 389.029 379.411Z"/><path d="M374.46 399.551C373.959 400.052 373.959 400.865 374.46 401.366 374.46 401.366 374.46 401.366 374.46 401.367L378.289 405.195C378.789 405.692 379.596 405.692 380.097 405.195L383.918 401.367C384.355 400.814 384.261 400.011 383.708 399.574 383.252 399.213 382.609 399.207 382.146 399.558L380.688 401.017 380.688 389.438 377.771 389.438 377.771 401.002 376.312 399.544C375.812 399.047 375.005 399.047 374.504 399.544Z"/></g></svg>