<svg width="70" height="70" xmlns="http://www.w3.org/2000/svg" xmlns:xlink="http://www.w3.org/1999/xlink" xml:space="preserve" overflow="hidden"><defs><clipPath id="clip0"><rect x="565" y="196" width="70" height="70"/></clipPath></defs><g clip-path="url(#clip0)" transform="translate(-565 -196)"><path d="M588.249 219.925 619.29 219.925 619.29 216.538C619.29 215.169 618.18 214.059 616.811 214.059L598.233 214.059 591.421 209.538C591.013 209.275 590.543 209.125 590.058 209.105L578.417 209.105C577.047 209.105 575.938 210.215 575.938 211.584L575.938 242.496 575.962 242.496 584.165 222.567C584.898 220.968 586.491 219.938 588.249 219.925Z"/><path d="M606.533 233.149C610.488 229.196 616.601 228.382 621.452 231.164L623.997 225.695C624.163 225.349 624.248 224.97 624.245 224.586 624.252 223.313 623.293 222.241 622.027 222.107L588.26 222.107C587.353 222.113 586.532 222.644 586.155 223.469L577.795 243.788 603.055 243.788C602.455 239.89 603.746 235.94 606.533 233.149Z"/><path d="M611.173 237.789C609.604 239.36 609.064 241.686 609.78 243.788L615.574 243.788 618.663 237.153C616.345 235.513 613.183 235.781 611.173 237.787Z"/><path d="M622.516 234.695C618.534 230.708 612.073 230.703 608.085 234.685 604.435 238.33 604.079 244.125 607.256 248.189L605.657 249.788C604.78 249.551 603.844 249.8 603.2 250.44L598.56 255.081C597.563 256.077 597.563 257.693 598.56 258.69 599.557 259.687 601.173 259.687 602.169 258.69L606.81 254.05C607.45 253.406 607.699 252.47 607.462 251.593L609.066 249.989C613.521 253.439 619.93 252.624 623.38 248.168 626.529 244.102 626.159 238.327 622.516 234.695ZM620.969 247.586C617.837 250.718 612.759 250.718 609.626 247.586 606.494 244.454 606.494 239.375 609.626 236.243 612.758 233.11 617.837 233.11 620.969 236.242 620.969 236.243 620.969 236.243 620.969 236.243 624.097 239.377 624.097 244.451 620.969 247.586Z"/></g></svg>