<svg width="70" height="70" xmlns="http://www.w3.org/2000/svg" xmlns:xlink="http://www.w3.org/1999/xlink" xml:space="preserve" overflow="hidden"><defs><clipPath id="clip0"><rect x="357" y="362" width="70" height="70"/></clipPath></defs><g clip-path="url(#clip0)" transform="translate(-357 -362)"><path d="M379.24 388.826C374.206 388.826 370.125 392.907 370.125 397.941 370.125 402.974 374.206 407.055 379.24 407.055 384.273 407.055 388.354 402.974 388.354 397.941 388.354 392.907 384.273 388.826 379.24 388.826ZM379.24 392.355C380.653 392.351 381.802 393.494 381.806 394.907 381.81 396.321 380.668 397.47 379.254 397.474 377.841 397.478 376.691 396.335 376.688 394.922 376.688 394.919 376.688 394.917 376.688 394.915 376.688 393.504 377.829 392.359 379.24 392.355ZM384.344 402.615 374.135 402.615 374.135 400.646C374.145 400.247 374.332 399.872 374.646 399.625 375.404 399.1 376.244 398.706 377.132 398.458 377.818 398.262 378.526 398.156 379.24 398.145 379.954 398.147 380.663 398.253 381.347 398.458 382.251 398.693 383.099 399.107 383.841 399.676 384.154 399.923 384.341 400.298 384.351 400.697Z"/><path d="M398.49 386.442 389.565 391.794C390.067 392.638 390.469 393.539 390.76 394.477L399.955 388.979C399.34 388.213 398.846 387.357 398.49 386.442Z"/><path d="M413.875 382.993C413.875 386.617 410.937 389.555 407.312 389.555 403.688 389.555 400.75 386.617 400.75 382.993 400.75 379.368 403.688 376.43 407.312 376.43 410.937 376.43 413.875 379.368 413.875 382.993Z"/><path d="M399.955 406.917 390.76 401.375C390.469 402.313 390.067 403.214 389.565 404.058L398.49 409.44C398.848 408.529 399.342 407.679 399.955 406.917Z"/><path d="M413.875 412.889C413.875 416.513 410.937 419.451 407.312 419.451 403.688 419.451 400.75 416.513 400.75 412.889 400.75 409.264 403.688 406.326 407.312 406.326 410.937 406.326 413.875 409.264 413.875 412.889Z"/></g></svg>