<svg width="70" height="70" xmlns="http://www.w3.org/2000/svg" xmlns:xlink="http://www.w3.org/1999/xlink" xml:space="preserve" overflow="hidden"><defs><clipPath id="clip0"><rect x="359" y="195" width="70" height="70"/></clipPath></defs><g clip-path="url(#clip0)" transform="translate(-359 -195)"><path d="M419.448 223.51C419.229 223.51 419.01 223.51 418.792 223.51L416.896 218.406C421.271 215.927 422.802 210.385 420.396 206.01 417.917 201.635 412.375 200.104 408 202.51 405.885 203.677 404.281 205.719 403.698 208.052L396.917 207.323C396.406 204.115 393.417 201.854 390.208 202.365 387.292 202.802 385.177 205.281 385.177 208.198 385.177 209.219 385.469 210.24 385.979 211.188L377.812 219.208C376.281 218.042 374.385 217.385 372.417 217.385 367.385 217.385 363.302 221.469 363.302 226.5 363.302 231.531 367.385 235.615 372.417 235.615L374.24 246.552C371.25 247.865 369.865 251.365 371.177 254.354 372.49 257.344 375.99 258.729 378.979 257.417 381.75 256.25 383.135 253.188 382.333 250.271L388.75 246.917C392.906 251.51 400.052 251.875 404.719 247.719 407.052 245.604 408.438 242.542 408.438 239.406 408.438 238.604 408.365 237.729 408.146 236.927L415.219 233.281C417.406 235.76 421.125 235.979 423.604 233.792 426.083 231.604 426.302 227.885 424.115 225.406 422.729 224.24 421.125 223.51 419.448 223.51L419.448 223.51ZM419.448 225.698C420.396 225.698 421.125 226.427 421.125 227.375 421.125 228.323 420.396 229.052 419.448 229.052 418.5 229.052 417.771 228.323 417.771 227.375 417.771 227.375 417.771 227.375 417.771 227.375 417.771 226.427 418.5 225.698 419.448 225.698L419.448 225.698ZM412.448 204.917C413.833 204.917 415 206.083 415 207.469 415 208.854 413.833 210.021 412.448 210.021 411.062 210.021 409.896 208.854 409.896 207.469 409.896 207.469 409.896 207.469 409.896 207.469 409.896 206.083 410.99 204.917 412.448 204.917ZM407.271 213.229C407.271 212.865 407.49 212.427 407.781 212.208 408.51 211.698 409.385 211.26 410.26 211.042 410.917 210.823 411.646 210.75 412.375 210.75 413.104 210.75 413.833 210.896 414.49 211.042 415.365 211.26 416.24 211.698 416.969 212.281 417.26 212.5 417.479 212.938 417.479 213.302L417.479 215.271 407.271 215.271 407.271 213.229ZM391.01 204.479C391.958 204.479 392.688 205.208 392.688 206.156 392.688 207.104 391.958 207.833 391.01 207.833 390.062 207.833 389.333 207.104 389.333 206.156 389.333 206.156 389.333 206.156 389.333 206.156 389.333 205.281 390.062 204.479 391.01 204.479L391.01 204.479ZM387.583 209.948C387.583 209.656 387.729 209.438 387.948 209.292 388.458 208.927 389.042 208.708 389.625 208.562 390.062 208.417 390.573 208.344 391.01 208.344 391.448 208.344 391.958 208.417 392.396 208.562 392.979 208.708 393.49 209 394 209.365 394.219 209.51 394.365 209.802 394.365 210.021L394.365 211.333 387.656 211.333 387.656 209.948ZM372.271 220.958C373.656 220.958 374.823 222.125 374.823 223.51 374.823 224.896 373.656 226.062 372.271 226.062 370.885 226.062 369.719 224.896 369.719 223.51 369.719 223.51 369.719 223.51 369.719 223.51 369.792 222.125 370.885 220.958 372.271 220.958L372.271 220.958ZM367.167 231.24 367.167 229.271C367.167 228.906 367.385 228.469 367.677 228.25 368.406 227.74 369.281 227.302 370.156 227.083 370.812 226.865 371.542 226.792 372.271 226.792 373 226.792 373.729 226.938 374.385 227.083 375.26 227.302 376.135 227.74 376.865 228.323 377.156 228.542 377.375 228.979 377.375 229.344L377.375 231.312 367.167 231.24ZM379.781 255.01 373 255.01 373 253.698C373 253.406 373.146 253.188 373.365 253.042 373.875 252.677 374.458 252.385 375.042 252.24 375.479 252.094 375.99 252.021 376.427 252.021 376.865 252.021 377.375 252.094 377.812 252.24 378.396 252.385 378.906 252.677 379.417 253.042 379.635 253.188 379.781 253.479 379.781 253.698L379.781 255.01ZM374.677 249.906C374.677 248.958 375.406 248.229 376.354 248.229 377.302 248.229 378.031 248.958 378.031 249.906 378.031 250.854 377.302 251.583 376.354 251.583 375.479 251.656 374.75 250.854 374.677 249.906L374.677 249.906ZM380.51 247.865C379.562 246.917 378.25 246.333 376.938 246.188L375.115 235.25C376.865 234.667 378.396 233.573 379.49 232.115L386.271 235.688C385.177 238.604 385.396 241.885 386.854 244.656L380.51 247.865ZM387.656 232.99 380.948 229.49C381.24 228.542 381.385 227.594 381.385 226.573 381.385 224.677 380.802 222.854 379.708 221.323L387.875 213.375C390.646 215.052 394.292 214.25 395.969 211.479 396.188 211.115 396.333 210.75 396.479 210.385L403.26 211.115C403.406 213.74 404.719 216.219 406.833 217.823L400.854 228.979C396.115 227.083 390.646 228.76 387.656 232.99L387.656 232.99ZM400.052 235.688C400.052 237.438 398.594 238.823 396.844 238.823 395.094 238.823 393.708 237.438 393.708 235.688 393.708 233.938 395.094 232.552 396.844 232.552 396.844 232.552 396.844 232.552 396.917 232.552 398.667 232.552 400.052 233.938 400.052 235.688L400.052 235.688ZM403.188 245.24 390.573 245.24 390.573 242.833C390.573 242.323 390.792 241.885 391.229 241.594 392.177 240.938 393.198 240.427 394.292 240.062 395.167 239.844 396.042 239.698 396.917 239.698 397.792 239.698 398.667 239.844 399.542 240.062 400.635 240.354 401.729 240.865 402.604 241.594 402.969 241.885 403.26 242.396 403.26 242.833L403.188 245.24ZM413.542 229.49C413.542 229.927 413.615 230.365 413.76 230.802L407.052 234.302C406.25 232.698 405.01 231.385 403.552 230.365L409.531 219.208C410.479 219.573 411.5 219.719 412.521 219.719 413.104 219.719 413.688 219.646 414.271 219.573L416.167 224.677C414.417 225.698 413.469 227.521 413.542 229.49ZM422.802 232.406 416.021 232.406 416.021 231.094C416.021 230.802 416.167 230.583 416.385 230.438 416.896 230.073 417.479 229.781 418.062 229.635 418.5 229.49 419.01 229.417 419.448 229.417 419.885 229.417 420.396 229.49 420.833 229.635 421.417 229.781 421.927 230.073 422.438 230.438 422.656 230.583 422.802 230.875 422.802 231.094L422.802 232.406Z"/></g></svg>