<svg width="70" height="70" xmlns="http://www.w3.org/2000/svg" xmlns:xlink="http://www.w3.org/1999/xlink" xml:space="preserve" overflow="hidden"><defs><clipPath id="clip0"><rect x="567" y="362" width="70" height="70"/></clipPath></defs><g clip-path="url(#clip0)" transform="translate(-567 -362)"><path d="M578.831 407.154C576.593 406.334 574.768 404.665 573.752 402.51 572.384 399.462 572.736 395.917 574.678 393.198 576.656 390.516 579.959 389.153 583.253 389.662L585.842 390.092 585.842 387.27C585.864 382.105 589.375 377.608 594.38 376.332 599.401 375.122 604.592 377.542 606.893 382.166L607.775 383.923 609.605 383.274C612.344 382.308 615.381 382.732 617.75 384.412 620.106 386.136 621.5 388.879 621.505 391.798L621.505 394.073 624.48 394.073C628.259 394.215 631.207 397.393 631.065 401.172 630.93 404.78 628.016 407.663 624.407 407.76L620.579 407.76 611.129 407.744 611.129 412.288 616.707 412.302 624.407 412.302C630.704 412.153 635.687 406.928 635.538 400.631 635.407 395.076 631.291 390.424 625.793 389.618 625.212 386.052 623.253 382.857 620.339 380.722 617.321 378.586 613.555 377.795 609.933 378.535 606.37 373.033 599.725 370.377 593.352 371.906 587.126 373.494 582.468 378.673 581.547 385.031 577.422 385.157 573.58 387.157 571.112 390.464 568.182 394.537 567.648 399.864 569.713 404.438 571.816 408.946 576.223 411.936 581.19 412.225L586.542 412.225 592.171 412.24 592.171 407.711 582.692 407.694 581.379 407.694C580.55 407.641 579.731 407.474 578.947 407.198Z"/><path d="M607.483 421.052 607.483 403.552 616.598 403.552 601.65 386.052 586.702 403.552 595.817 403.552 595.817 421.052 607.483 421.052Z"/></g></svg>